<?xml version="1.0" standalone="no"?>
<!DOCTYPE svg PUBLIC "-//W3C//DTD SVG 20010904//EN"
 "http://www.w3.org/TR/2001/REC-SVG-20010904/DTD/svg10.dtd">
<svg version="1.0" xmlns="http://www.w3.org/2000/svg"
 width="888.000000pt" height="888.000000pt" viewBox="0 0 888.000000 888.000000"
 preserveAspectRatio="xMidYMid meet">
<metadata>
Created by potrace 1.11, written by Peter Selinger 2001-2013
</metadata>
<g transform="translate(0.000000,888.000000) scale(0.100000,-0.100000)"
fill="#000000" stroke="none">
<path d="M2079 8870 c-42 -24 -299 -318 -299 -341 0 -13 -35 -65 -65 -96 -12
-12 -32 -43 -45 -68 -13 -25 -29 -45 -37 -45 -11 0 -9 10 8 40 13 22 26 40 31
40 4 0 8 9 8 19 0 11 5 21 12 23 7 3 9 11 4 24 -8 18 -8 18 -17 -3 -4 -13 -14
-23 -22 -23 -7 0 -28 -29 -47 -65 -18 -35 -39 -66 -47 -69 -7 -3 -13 -18 -13
-34 0 -20 -12 -42 -35 -66 -21 -23 -35 -48 -35 -63 0 -22 -3 -24 -25 -19 -14
4 -25 2 -25 -4 0 -5 5 -10 11 -10 6 0 9 -12 7 -27 -2 -17 -9 -28 -18 -28 -20
0 -39 -25 -40 -52 0 -12 -5 -25 -10 -28 -6 -4 -8 -21 -4 -41 5 -27 3 -34 -10
-34 -9 0 -19 -14 -26 -37 -5 -21 -24 -65 -40 -98 l-30 -60 0 38 c0 21 6 50 14
65 7 15 19 52 26 82 7 30 23 80 36 111 13 31 24 64 24 72 0 9 13 42 30 74 60
118 92 193 87 205 -4 15 -117 -212 -117 -236 0 -9 -4 -16 -10 -16 -5 0 -10
-11 -10 -24 0 -14 -4 -27 -9 -31 -6 -3 -21 -40 -35 -83 -13 -42 -34 -102 -45
-132 -12 -30 -21 -66 -21 -80 0 -15 -9 -45 -20 -68 -11 -22 -20 -48 -20 -56 0
-8 -4 -25 -9 -38 -5 -13 -14 -45 -19 -73 -6 -27 -20 -88 -31 -135 -11 -47 -27
-139 -35 -205 -9 -66 -21 -156 -27 -200 -6 -47 -10 -207 -9 -385 1 -168 1
-309 0 -315 -3 -19 -39 100 -40 133 0 17 -4 32 -10 32 -13 0 -13 -71 0 -106
12 -31 4 -67 -13 -61 -7 2 -13 13 -15 25 -4 28 -22 18 -22 -12 0 -12 -5 -27
-10 -32 -6 -6 -15 -58 -20 -115 -11 -132 -33 -286 -42 -295 -4 -4 -11 13 -15
37 -7 40 -8 37 -14 -46 -3 -49 -2 -97 2 -105 8 -16 7 -17 22 30 3 8 5 -12 5
-45 0 -35 6 -72 15 -89 10 -19 13 -36 7 -50 -4 -12 -5 -29 0 -37 4 -7 10 -30
14 -49 4 -23 14 -39 28 -45 18 -8 25 -22 30 -59 4 -26 10 -55 14 -65 5 -9 8
-27 9 -41 0 -14 5 -26 10 -27 6 -1 9 11 7 28 -2 23 2 29 18 29 17 0 20 -7 20
-40 0 -49 16 -82 64 -134 20 -21 35 -43 33 -50 -4 -12 72 -85 89 -86 6 0 27
-18 48 -40 40 -43 68 -50 98 -23 17 15 18 15 18 0 0 -10 -7 -17 -16 -17 -29 0
2 -25 69 -57 34 -17 84 -44 111 -62 28 -17 58 -31 68 -31 9 0 22 -9 28 -20 6
-11 23 -23 38 -27 15 -3 32 -13 38 -21 10 -13 68 -22 142 -22 17 1 32 -4 32
-10 0 -23 257 0 325 29 62 27 89 33 125 27 25 -4 40 -2 40 4 0 5 -5 10 -12 10
-6 0 -3 6 8 14 10 8 21 12 24 10 2 -3 -2 -9 -10 -14 -12 -8 -10 -10 7 -10 12
0 36 13 53 30 16 16 47 34 69 40 21 5 58 28 81 49 50 45 87 67 97 57 8 -8
-103 -112 -129 -121 -10 -4 -18 -11 -18 -16 0 -5 -5 -9 -11 -9 -6 0 -22 -9
-36 -20 -14 -11 -31 -20 -38 -20 -7 0 -39 -16 -71 -35 -57 -35 -51 -48 9 -21
18 8 48 22 67 30 165 74 395 291 536 505 121 184 203 364 258 566 13 50 27 98
31 108 11 27 5 26 -315 -68 -155 -45 -322 -91 -392 -107 -83 -18 -176 -42
-380 -97 -95 -26 -91 -26 -85 2 3 12 2 42 -3 66 -9 49 -4 71 15 71 7 0 18 6
24 14 7 8 31 24 54 36 64 32 80 43 109 73 15 15 32 27 39 27 6 0 24 9 40 21
34 24 49 18 49 -19 0 -17 13 -42 35 -67 l35 -39 48 12 c114 30 190 55 237 76
28 13 64 30 80 37 37 17 102 81 107 104 2 11 20 22 48 30 25 7 65 21 90 32 25
10 72 25 105 32 33 7 76 17 95 21 19 5 44 11 55 12 15 3 27 24 51 91 17 48 37
108 44 134 6 27 15 57 20 68 4 11 12 38 18 60 6 22 18 65 26 95 9 30 23 96 32
145 8 50 20 115 25 145 30 169 54 435 54 605 0 118 -20 405 -35 495 -31 199
-119 485 -189 620 -49 94 -89 155 -152 228 l-36 42 -594 0 c-359 0 -600 -4
-610 -10z m961 -514 c0 -20 -26 -40 -35 -26 -10 16 2 40 20 40 8 0 15 -6 15
-14z m-40 -126 c0 -5 -7 -10 -15 -10 -8 0 -15 5 -15 10 0 6 7 10 15 10 8 0 15
-4 15 -10z m167 -107 c-3 -10 -5 -2 -5 17 0 19 2 27 5 18 2 -10 2 -26 0 -35z
m-17 -95 c0 -43 -3 -59 -11 -51 -9 9 -3 113 7 113 2 0 4 -28 4 -62z m-34 -1
c14 -45 -73 -77 -195 -71 -42 2 -79 4 -83 4 -5 0 -8 14 -8 30 0 25 4 30 23 30
13 0 27 4 33 9 10 11 63 16 161 17 54 0 64 -3 69 -19z m-163 -124 c-7 -2 -19
-2 -25 0 -7 3 -2 5 12 5 14 0 19 -2 13 -5z m115 -83 c-7 -23 -16 -30 -31 -28
-11 2 -22 -3 -24 -9 -3 -7 2 -13 11 -13 17 0 21 -17 7 -38 -12 -20 -136 -36
-215 -28 -63 7 -67 9 -62 29 3 12 6 36 6 54 l0 31 98 7 c53 4 117 10 142 15
80 14 80 14 68 -20z m50 -71 c-19 -12 -23 18 -6 49 l13 26 3 -34 c2 -20 -2
-36 -10 -41z m-331 -95 c-3 -3 -12 -4 -19 -1 -8 3 -5 6 6 6 11 1 17 -2 13 -5z
m43 -14 c-19 -12 -30 -12 -30 -1 0 10 31 20 40 14 2 -2 -2 -8 -10 -13z m70 10
c0 -5 -7 -7 -15 -4 -8 4 -15 8 -15 10 0 2 7 4 15 4 8 0 15 -4 15 -10z m-125
-50 c4 -6 -5 -10 -20 -10 -15 0 -24 4 -20 10 3 6 12 10 20 10 8 0 17 -4 20
-10z m415 -14 c0 -8 -7 -16 -15 -20 -10 -4 -15 1 -15 14 0 11 7 20 15 20 8 0
15 -6 15 -14z m-260 -45 c-6 -12 -16 -21 -23 -21 -12 0 -37 -53 -37 -79 0 -19
43 -8 55 14 21 40 48 75 58 75 6 0 7 -21 3 -57 -13 -121 -24 -199 -34 -238 -5
-22 -12 -93 -15 -158 -4 -106 -3 -117 11 -104 15 15 27 94 39 257 3 41 11 84
19 95 10 15 11 44 6 119 -6 79 -5 102 6 113 15 15 38 12 35 -4 -2 -11 -2 -83
0 -308 1 -111 -2 -185 -10 -214 -7 -24 -13 -75 -13 -113 0 -46 -4 -68 -12 -68
-9 0 -9 -3 0 -12 7 -7 12 -23 12 -36 0 -18 -4 -22 -17 -18 -13 4 -27 -7 -48
-35 -29 -40 -30 -40 -33 -15 -2 15 6 39 17 55 24 33 27 61 9 80 -7 6 -13 25
-13 41 0 16 -4 30 -10 30 -14 1 -23 -35 -24 -96 -1 -29 -8 -65 -16 -80 -19
-37 -19 -79 1 -98 18 -19 10 -36 -17 -36 -16 0 -20 6 -18 28 5 62 -3 167 -10
147 -5 -11 -6 -24 -4 -28 3 -5 2 -25 -2 -45 -7 -34 -8 -35 -16 -15 -10 28 -37
20 -45 -13 -9 -35 2 -55 28 -52 13 2 24 -1 26 -7 1 -6 -24 -11 -58 -13 l-60
-3 -2 43 c-1 24 -1 52 0 63 1 11 -3 45 -8 75 -5 30 -10 84 -11 120 -1 36 -7
71 -13 79 -8 10 -4 18 16 35 14 11 29 32 33 46 4 14 12 30 17 37 5 7 5 14 -1
17 -6 4 -31 -9 -56 -29 -47 -36 -95 -46 -95 -21 0 15 21 26 51 26 14 0 22 11
29 43 9 33 19 47 48 64 21 11 44 34 52 50 8 15 21 32 27 36 7 4 13 14 13 22 0
8 11 17 25 21 39 10 50 29 27 52 -19 19 -20 18 -76 -39 -31 -32 -61 -70 -68
-84 -6 -14 -15 -25 -19 -25 -15 0 -17 36 -11 150 7 113 7 115 32 118 14 2 30
7 35 11 6 4 37 7 70 6 46 0 64 4 79 19 23 23 33 8 16 -23z m-513 -303 c-3 -7
-5 -2 -5 12 0 14 2 19 5 13 2 -7 2 -19 0 -25z m127 -74 c-10 -19 -22 -34 -26
-34 -17 0 -7 -21 15 -30 18 -7 15 -9 -20 -9 -31 -1 -43 3 -43 13 0 8 4 16 8
18 5 2 24 30 43 63 29 51 34 56 37 36 2 -13 -4 -39 -14 -57z m-534 -225 c0
-11 -4 -17 -10 -14 -5 3 -10 15 -10 26 0 11 5 17 10 14 6 -3 10 -15 10 -26z
m640 -149 c0 -5 -5 -10 -11 -10 -5 0 -7 5 -4 10 3 6 8 10 11 10 2 0 4 -4 4
-10z m-254 -45 c15 -23 15 -26 -10 -56 -22 -25 -26 -41 -26 -89 0 -32 -4 -62
-10 -65 -5 -3 -10 -15 -10 -25 0 -22 -13 -32 -32 -25 -22 9 -48 71 -48 113 0
21 -5 43 -11 49 -14 14 16 60 64 97 40 32 62 33 83 1z m-229 -27 c-3 -8 -6 -5
-6 6 -1 11 2 17 5 13 3 -3 4 -12 1 -19z m783 -54 c0 -8 -7 -14 -15 -14 -17 0
-18 2 -9 24 7 18 24 12 24 -10z m513 -3 c30 -12 57 -75 57 -134 0 -47 -15 -82
-24 -57 -3 8 -7 33 -8 55 -2 29 -8 41 -20 43 -15 3 -18 -4 -18 -47 0 -27 5
-53 11 -56 6 -4 7 -19 3 -38 -4 -18 -6 -49 -5 -69 1 -20 -3 -39 -9 -43 -5 -3
-10 -17 -10 -31 0 -18 -9 -29 -34 -40 -32 -16 -35 -16 -64 6 -26 19 -31 31
-37 81 -6 49 -3 67 14 104 12 25 21 54 21 66 0 19 -4 21 -30 15 l-30 -6 15 37
c17 39 34 62 75 100 27 24 55 28 93 14z m-267 -102 c18 -17 21 -26 13 -41 -7
-12 -17 -17 -29 -13 -10 3 -21 1 -25 -4 -3 -6 6 -13 20 -17 22 -5 25 -12 25
-47 0 -40 -31 -158 -53 -206 -9 -19 -8 -25 6 -36 21 -15 23 -55 3 -55 -8 0
-27 -11 -42 -25 -28 -26 -63 -32 -94 -15 -14 7 -21 6 -27 -3 -11 -19 -51 -39
-63 -32 -21 13 -10 54 18 67 l27 13 -3 101 c-3 62 1 118 9 145 19 65 77 144
124 167 52 27 64 27 91 1z m-541 1 c3 -5 19 -10 36 -10 20 0 41 -12 69 -39 33
-32 40 -45 40 -78 0 -34 -6 -45 -41 -76 -46 -42 -66 -48 -45 -14 29 45 29 66
2 78 -15 7 -30 26 -37 46 -7 22 -24 42 -45 55 -34 20 -40 29 -27 41 10 10 41
8 48 -3z m-725 -109 c0 -16 7 -34 15 -41 8 -7 15 -21 15 -32 0 -10 -7 -21 -15
-24 -8 -4 -15 -12 -15 -20 0 -7 -8 -30 -17 -49 -17 -35 -17 -38 5 -78 27 -52
27 -48 -3 -81 l-25 -27 30 -30 c29 -30 41 -69 20 -69 -5 0 -10 -5 -10 -10 0
-6 11 -8 26 -4 25 6 26 5 20 -19 -3 -14 -1 -29 4 -32 6 -4 8 -15 5 -26 -7 -22
10 -26 19 -4 3 8 12 15 20 15 21 0 10 68 -15 96 -11 11 -19 25 -19 31 0 10
151 32 256 38 28 1 65 10 82 19 17 9 41 16 52 16 12 0 29 4 38 9 14 7 76 -1
109 -14 1 0 -5 -20 -13 -44 -18 -54 -67 -115 -112 -142 -33 -19 -37 -19 -75
-4 -22 9 -47 25 -56 36 -20 24 -89 36 -119 20 -12 -6 -47 -44 -79 -83 -53 -66
-58 -76 -63 -132 -4 -47 -9 -61 -21 -61 -18 0 -89 -60 -89 -75 0 -6 -4 -9 -9
-6 -5 4 -17 3 -26 0 -15 -6 -15 -8 -2 -15 12 -7 13 -18 6 -55 -10 -52 -24 -74
-47 -74 -18 0 -79 -18 -104 -31 -10 -5 -22 -9 -28 -9 -5 0 -35 -12 -66 -27
l-57 -27 -24 30 c-22 27 -39 60 -98 189 -13 28 -29 76 -36 108 -7 32 -16 60
-21 63 -4 3 -8 23 -8 45 0 22 -7 54 -16 70 -8 17 -13 37 -10 45 8 20 34 17 39
-3 4 -14 5 -14 6 3 0 12 7 26 14 31 23 18 212 75 257 78 l45 3 0 48 c0 45 -2
49 -45 79 -72 51 -66 92 25 186 51 53 169 119 213 119 18 0 22 -6 22 -29z
m624 -72 c26 -31 30 -40 26 -72 -1 -10 4 -24 10 -32 8 -10 7 -17 -5 -29 -23
-22 -28 -21 -69 19 -33 32 -36 38 -30 77 3 24 7 49 10 56 6 21 31 13 58 -19z
m-385 -43 c9 -11 8 -15 -5 -20 -20 -8 -39 7 -30 23 10 15 21 14 35 -3z m286
-61 c0 -16 7 -20 28 -18 29 2 36 -11 13 -24 -7 -4 -18 -18 -25 -30 -10 -19
-14 -21 -31 -11 -15 10 -22 9 -38 -5 -10 -9 -22 -17 -25 -17 -11 0 -8 68 4 75
6 4 8 14 5 22 -9 24 3 34 37 31 24 -2 32 -8 32 -23z m895 -80 c-7 -8 -19 -15
-26 -15 -8 0 -14 7 -14 15 0 10 10 15 26 15 22 0 25 -2 14 -15z m-498 -80
c-22 -135 -30 -176 -35 -182 -12 -12 -46 29 -53 63 -8 41 2 85 18 81 7 -1 13
7 15 18 8 40 13 46 35 43 17 -2 22 -9 20 -23z m-738 7 c5 -9 -19 -24 -58 -36
-26 -9 -50 12 -35 30 12 15 85 19 93 6z m497 -153 c-9 -23 -10 -22 -10 11 -1
23 2 31 9 24 7 -7 7 -19 1 -35z m669 -160 c0 -12 -13 -43 -28 -68 -15 -25 -36
-65 -46 -88 -11 -24 -23 -43 -28 -43 -5 0 -13 -12 -19 -27 -7 -18 -13 -23 -20
-16 -8 8 -7 22 1 50 14 42 44 128 55 156 12 29 -34 21 -65 -13 -18 -20 -38
-30 -57 -30 -34 0 -170 -25 -198 -36 -11 -4 -31 -15 -44 -23 -27 -17 -161 -52
-198 -52 -13 1 -23 -5 -23 -13 0 -7 -17 -18 -37 -24 -21 -6 -90 -26 -153 -45
-116 -36 -237 -63 -244 -56 -2 2 -1 19 1 37 5 28 10 33 44 38 22 4 42 11 45
15 3 5 20 9 39 9 19 0 37 5 41 11 3 6 22 9 40 7 19 -2 35 0 36 4 2 5 21 11 43
14 22 3 49 9 60 14 11 4 56 15 100 24 44 9 91 20 105 23 14 4 29 5 34 4 5 -1
12 2 15 7 7 9 134 42 166 42 11 0 33 9 50 20 16 11 56 23 88 26 35 4 61 12 64
20 6 16 59 19 68 4 8 -13 45 -13 45 0 0 6 -10 15 -22 20 -21 8 -20 9 10 9 26
1 32 -3 32 -20z m-2364 -26 c-11 -11 -19 6 -11 24 8 17 8 17 12 0 3 -10 2 -21
-1 -24z m1094 -159 c0 -14 7 -32 15 -40 23 -23 18 -44 -9 -44 -21 0 -24 6 -29
47 -3 26 -3 53 0 60 8 20 23 5 23 -23z m590 -113 c0 -5 -7 -12 -16 -15 -8 -3
-12 -11 -8 -18 5 -8 0 -9 -17 -5 -13 4 -31 7 -39 7 -10 0 -7 7 10 20 26 20 70
27 70 11z m-520 -33 c23 -29 17 -38 -25 -38 -19 0 -46 -5 -60 -12 -31 -14 -35
-11 -28 25 4 21 11 27 32 27 14 0 33 5 41 10 20 13 19 13 40 -12z m415 -8 c0
-10 -11 -15 -35 -15 -42 -1 -80 -16 -126 -51 l-34 -26 0 25 c0 33 16 45 92 67
73 21 103 21 103 0z m-651 -92 c-4 -6 -40 -6 -113 1 -20 1 16 41 38 41 9 1 27
7 41 15 24 13 25 12 32 -18 3 -17 4 -35 2 -39z m394 35 c-2 -12 -14 -19 -33
-21 -17 -2 -36 -9 -43 -15 -7 -5 -41 -12 -74 -14 -55 -4 -60 -3 -49 11 8 9 21
16 30 16 9 0 22 5 29 12 11 11 69 24 120 27 17 1 23 -4 20 -16z m782 2 c0 -8
-4 -15 -10 -15 -5 0 -10 7 -10 15 0 8 5 15 10 15 6 0 10 -7 10 -15z m-1056
-65 c31 -12 33 -26 5 -33 -13 -3 -19 -12 -17 -24 2 -11 -3 -18 -12 -18 -8 0
-14 8 -14 18 1 9 -2 17 -7 17 -13 0 -11 24 3 38 14 14 11 14 42 2z m-170 -19
c19 -7 19 -8 0 -27 -15 -15 -18 -31 -16 -81 2 -38 -1 -63 -7 -63 -13 0 -25 64
-18 99 4 17 0 36 -8 48 -22 31 2 42 49 24z m583 -43 c-3 -8 -6 -5 -6 6 -1 11
2 17 5 13 3 -3 4 -12 1 -19z m-515 -17 c-1 -13 -9 -32 -17 -44 -15 -21 -15
-21 -15 10 0 17 3 39 6 48 9 23 29 12 26 -14z m148 15 c0 -3 -4 -8 -10 -11 -5
-3 -10 -1 -10 4 0 6 5 11 10 11 6 0 10 -2 10 -4z m419 -48 c12 -15 11 -18 -3
-18 -10 0 -16 8 -16 22 0 12 1 19 3 17 1 -2 9 -12 16 -21z m-515 6 c9 -3 14
-10 11 -15 -7 -10 -35 0 -35 12 0 11 3 11 24 3z m434 -82 c6 -2 12 3 12 12 0
26 17 18 26 -11 4 -16 7 -32 6 -36 -1 -4 5 -10 13 -13 8 -4 15 -15 15 -25 0
-15 -8 -19 -32 -20 -18 -1 -48 -2 -66 -3 -52 -2 -58 15 -31 83 21 53 24 57 33
38 6 -11 17 -22 24 -25z m-258 8 c0 -16 -7 -20 -35 -20 -42 0 -46 14 -7 28 39
15 42 14 42 -8z m137 -3 c-6 -20 -27 -19 -27 2 0 14 5 19 15 14 9 -3 14 -10
12 -16z m-247 -42 c-13 -16 -70 -21 -70 -6 0 12 19 19 54 20 24 1 27 -1 16
-14z m-55 -45 c4 -6 4 -18 1 -27 -5 -12 -9 -13 -21 -3 -8 7 -15 19 -15 26 0
16 26 19 35 4z m945 -34 c0 -8 -4 -17 -9 -21 -12 -7 -24 12 -16 25 9 15 25 12
25 -4z m-50 -50 c0 -2 -7 -9 -15 -16 -12 -10 -15 -10 -15 4 0 9 7 16 15 16 8
0 15 -2 15 -4z"/>
<path d="M3040 8016 c0 -9 7 -16 16 -16 17 0 14 22 -4 28 -7 2 -12 -3 -12 -12z"/>
<path d="M2930 8000 c0 -5 7 -10 15 -10 8 0 15 5 15 10 0 6 -7 10 -15 10 -8 0
-15 -4 -15 -10z"/>
<path d="M2912 7760 c0 -14 2 -19 5 -12 2 6 2 18 0 25 -3 6 -5 1 -5 -13z"/>
<path d="M2847 7193 c-11 -10 -8 -81 3 -88 6 -4 10 13 10 44 0 52 -1 56 -13
44z"/>
<path d="M2743 6980 c0 -36 2 -50 4 -32 2 17 2 47 0 65 -2 17 -4 3 -4 -33z"/>
<path d="M2740 6862 c0 -23 5 -42 10 -42 7 0 8 14 4 38 -9 51 -14 53 -14 4z"/>
<path d="M2740 6785 c0 -8 5 -15 10 -15 6 0 10 7 10 15 0 8 -4 15 -10 15 -5 0
-10 -7 -10 -15z"/>
<path d="M1832 6270 c0 -14 2 -19 5 -12 2 6 2 18 0 25 -3 6 -5 1 -5 -13z"/>
<path d="M1740 6039 c0 -36 101 -142 158 -166 53 -22 63 -40 46 -82 -18 -44
-18 -48 6 -26 11 10 20 28 20 40 0 11 6 27 12 33 10 10 10 15 -2 22 -8 5 -22
10 -30 10 -16 0 -92 70 -151 138 -35 41 -59 53 -59 31z"/>
<path d="M1891 5984 c0 -11 3 -14 6 -6 3 7 2 16 -1 19 -3 4 -6 -2 -5 -13z"/>
<path d="M1902 5728 c-7 -7 -11 -26 -11 -42 2 -28 2 -28 6 -6 3 14 10 31 15
38 14 16 5 25 -10 10z"/>
<path d="M1818 5593 c7 -3 16 -2 19 1 4 3 -2 6 -13 5 -11 0 -14 -3 -6 -6z"/>
<path d="M1530 5520 c-12 -8 -10 -10 8 -10 13 0 20 4 17 10 -7 12 -6 12 -25 0z"/>
<path d="M2248 5533 c7 -3 16 -2 19 1 4 3 -2 6 -13 5 -11 0 -14 -3 -6 -6z"/>
<path d="M4097 8848 c4 -18 7 -58 7 -88 -1 -30 1 -40 3 -22 9 71 45 22 67 -93
55 -284 69 -365 64 -371 -3 -2 1 -30 8 -62 8 -31 14 -76 14 -99 0 -37 24 -133
50 -198 22 -55 30 -111 30 -199 0 -94 1 -97 25 -106 18 -7 25 -17 25 -35 0
-15 6 -33 14 -41 8 -8 17 -46 21 -91 6 -64 12 -83 34 -108 33 -38 51 -70 51
-92 1 -21 23 -53 37 -53 6 0 13 -14 17 -31 9 -45 8 -46 -14 -52 -24 -6 -26
-20 -5 -41 8 -8 15 -19 15 -25 0 -5 5 -22 12 -38 11 -27 12 -26 23 37 l13 65
1 -82 c0 -45 6 -85 11 -88 6 -3 10 -39 10 -80 0 -42 5 -77 11 -80 6 -4 14 -17
19 -29 8 -20 8 -20 19 7 6 16 11 61 11 102 0 77 7 91 40 80 16 -5 20 -17 22
-83 3 -71 5 -77 26 -80 21 -3 22 -1 22 85 0 133 34 247 92 309 23 24 30 44 35
88 3 32 11 56 17 56 15 0 101 89 109 113 6 15 20 17 107 17 l100 0 0 83 c0
129 -1 127 85 127 l73 0 7 50 7 49 76 3 77 3 3 75 c2 41 8 80 13 86 7 8 34 12
77 11 62 -2 67 0 79 23 7 14 13 40 13 59 0 29 2 32 15 21 8 -7 15 -22 15 -34
0 -28 18 -46 45 -46 27 0 45 18 45 46 0 12 6 27 14 33 12 10 16 3 23 -41 7
-48 11 -53 36 -56 27 -3 27 -4 27 -79 0 -66 2 -75 20 -80 18 -5 20 -14 20 -84
0 -43 -4 -81 -10 -84 -5 -3 -10 -42 -10 -86 0 -78 0 -79 25 -79 25 0 25 -1 25
-80 0 -63 3 -80 14 -80 18 0 27 98 29 337 1 94 6 169 10 166 5 -3 15 3 22 13
12 16 15 -57 16 -531 0 -302 1 -795 2 -1095 2 -643 -1 -732 -23 -728 -11 2
-14 13 -12 40 3 36 -14 61 -27 40 -4 -6 -38 -18 -76 -27 -98 -22 -153 -45
-158 -64 -4 -12 -6 -11 -12 7 -9 29 -39 25 -43 -6 -2 -16 -10 -22 -27 -22 -13
0 -27 5 -31 11 -4 7 -22 9 -49 4 -36 -5 -45 -3 -54 12 -7 13 -5 23 6 35 21 23
10 48 -21 48 -16 0 -27 -7 -31 -21 -6 -19 -7 -20 -20 -2 -12 16 -15 16 -28 3
-20 -21 -28 -115 -11 -138 12 -17 10 -21 -11 -30 -15 -7 -26 -8 -30 -2 -4 6
-15 10 -26 10 -14 0 -19 7 -19 30 0 17 -4 30 -10 30 -5 0 -10 -7 -10 -15 0 -9
-11 -21 -25 -27 -14 -6 -25 -16 -25 -21 0 -5 -11 -7 -25 -5 -16 4 -38 -5 -67
-24 l-43 -30 45 5 c25 3 37 3 28 0 -10 -2 -18 -9 -18 -15 0 -8 -33 -9 -105 -4
-64 4 -105 3 -105 -3 0 -5 5 -11 12 -13 6 -2 -15 -10 -48 -17 -32 -8 -95 -27
-139 -43 -44 -16 -98 -34 -120 -40 -22 -6 -50 -19 -63 -29 -13 -10 -36 -20
-52 -24 -16 -3 -34 -13 -41 -21 -7 -8 -26 -22 -43 -30 -29 -13 -61 -34 -126
-81 -66 -49 -204 -199 -195 -213 4 -6 -7 -29 -24 -52 -17 -23 -31 -52 -31 -64
0 -12 -9 -41 -20 -65 -11 -24 -20 -55 -19 -69 l0 -25 25 29 26 30 -5 -50 c-4
-27 -11 -101 -16 -165 -5 -64 -15 -128 -22 -142 -11 -24 -10 -30 8 -50 30 -33
34 -55 18 -94 -8 -19 -15 -46 -15 -59 0 -12 -4 -26 -10 -29 -5 -3 -10 -19 -10
-36 0 -25 -4 -29 -28 -29 -30 0 -71 -24 -60 -35 3 -4 25 -9 47 -12 37 -5 41
-8 41 -34 0 -15 -8 -41 -17 -58 -18 -30 -18 -31 8 -55 20 -18 25 -31 21 -55
-2 -18 -10 -31 -18 -31 -21 0 -17 -9 16 -37 37 -31 37 -46 3 -92 -16 -20 -49
-68 -75 -108 -26 -39 -56 -76 -67 -82 -30 -17 -45 -73 -31 -118 18 -59 40
-103 51 -103 5 0 19 -8 30 -19 17 -15 19 -26 13 -57 -4 -22 -15 -50 -25 -63
-24 -30 -24 -70 -1 -110 16 -30 16 -32 0 -62 -19 -33 -24 -117 -9 -147 32 -62
34 -73 23 -84 -7 -7 -12 -29 -12 -49 0 -41 -19 -92 -48 -129 -36 -47 -112
-187 -112 -207 0 -12 -7 -24 -16 -27 -8 -3 -12 -11 -9 -16 8 -13 84 69 85 91
0 9 9 24 20 34 11 10 22 26 25 36 4 11 11 19 16 19 14 0 11 -44 -6 -66 -8 -10
-15 -39 -15 -64 0 -40 -6 -50 -45 -89 -28 -28 -49 -42 -59 -38 -11 4 -16 1
-16 -11 0 -9 -33 -51 -74 -92 -113 -114 -156 -162 -173 -193 -19 -38 -47 -70
-178 -207 -186 -194 -186 -194 -196 -179 -5 8 -9 17 -9 22 0 16 -30 5 -41 -15
-7 -13 -20 -29 -31 -36 -10 -7 -18 -24 -18 -36 0 -13 -7 -29 -15 -36 -20 -17
-19 -40 3 -40 14 0 15 -2 2 -10 -8 -5 -24 -10 -35 -10 -27 0 -76 -46 -69 -65
4 -10 -14 -23 -63 -46 -37 -17 -76 -38 -85 -46 -12 -11 -28 -13 -56 -8 -52 8
-58 -4 -24 -48 54 -69 67 -90 72 -110 9 -35 -16 -131 -45 -175 -18 -27 -25
-48 -20 -61 3 -11 1 -30 -6 -42 -8 -15 -11 -69 -10 -155 1 -74 -2 -135 -8
-138 -5 -3 -9 -67 -9 -141 l0 -135 84 0 c68 0 85 3 93 18 10 16 12 16 25 0 12
-17 157 -18 2784 -18 2207 0 2771 3 2775 13 4 9 6 9 6 0 1 -10 37 -13 146 -13
l145 0 0 287 0 286 -44 -46 c-37 -39 -50 -47 -80 -47 -29 0 -36 -4 -36 -20 0
-17 7 -20 40 -20 43 0 50 -9 24 -31 -12 -10 -17 -10 -23 0 -6 8 -34 12 -92 10
-46 -1 -105 2 -131 6 -39 6 -54 3 -83 -14 -44 -26 -41 -26 -48 1 -5 18 -8 19
-22 8 -14 -12 -13 -15 6 -37 13 -12 30 -23 39 -23 27 0 60 -30 60 -55 0 -17 7
-26 23 -30 22 -6 23 -11 22 -86 0 -48 -4 -78 -10 -76 -5 2 -10 12 -11 23 -2
73 -70 173 -150 220 -66 39 -78 57 -71 108 5 31 2 54 -8 73 -8 15 -17 44 -20
64 -4 24 -14 43 -32 55 -47 33 -109 105 -123 142 -13 36 -55 81 -77 82 -7 0
-18 9 -25 20 -7 11 -31 25 -53 31 -48 13 -83 45 -132 119 -20 30 -96 114 -168
187 -115 115 -138 133 -179 144 -60 15 -54 33 12 37 29 2 52 7 52 13 0 5 -6 9
-14 9 -7 0 -25 11 -40 25 -15 14 -30 25 -35 25 -4 0 -15 15 -24 32 -10 18 -28
51 -42 73 -13 22 -24 52 -25 67 0 15 -4 30 -10 33 -5 3 -10 21 -10 40 0 23 -5
35 -17 37 -15 3 -31 47 -50 140 -3 14 -13 28 -24 31 -15 4 -19 14 -19 55 0 27
-6 72 -14 98 -31 107 -40 163 -27 178 13 16 6 82 -10 92 -14 8 -10 81 7 133
18 57 16 106 -6 106 -9 0 -22 -24 -35 -66 -13 -42 -24 -64 -32 -62 -25 9 -10
92 23 133 14 16 44 117 49 161 2 14 11 51 21 82 14 46 15 61 6 82 -7 14 -12
60 -12 102 0 68 -2 75 -18 71 -26 -7 -49 70 -34 110 31 81 43 715 17 897 -31
215 -73 352 -150 485 -29 52 -68 122 -84 156 -17 34 -37 67 -46 74 -8 7 -15
16 -15 21 0 15 -87 142 -124 183 -20 21 -36 42 -36 46 0 9 -45 62 -108 129
-24 25 -48 54 -53 63 -9 16 -7 17 16 6 14 -6 25 -15 25 -19 0 -10 52 -27 68
-21 11 3 11 7 -1 21 -8 9 -20 51 -27 94 -8 47 -19 81 -27 84 -8 3 -13 22 -13
52 0 26 -5 52 -11 58 -7 7 -14 57 -17 115 -3 57 -9 106 -15 110 -7 4 -10 233
-9 700 2 815 8 1104 24 1135 7 15 9 57 5 125 -5 80 -3 105 7 118 12 12 15 108
18 523 l3 507 -1253 0 -1254 0 9 -32z m2050 -541 c-2 -23 -3 -1 -3 48 0 50 1
68 3 42 2 -26 2 -67 0 -90z m3 -304 c0 -59 -4 -103 -8 -97 -8 9 -4 204 4 204
2 0 4 -48 4 -107z m-210 -2605 c0 -15 -41 -36 -58 -30 -19 6 -14 22 11 32 32
13 47 12 47 -2z m-173 -28 c12 -32 5 -37 -26 -18 -15 9 -17 15 -8 30 16 25 21
23 34 -12z m820 -2 c-3 -8 -6 -5 -6 6 -1 11 2 17 5 13 3 -3 4 -12 1 -19z
m-2277 -1218 l0 -35 -25 30 c-24 30 -31 67 -18 101 6 15 10 11 25 -21 9 -22
18 -56 18 -75z m2864 -1253 c4 -39 3 -56 -4 -52 -5 3 -10 31 -10 62 0 70 5 66
14 -10z m-3414 -1179 c-1 -16 -49 -72 -56 -65 -6 6 38 76 49 77 4 0 7 -6 7
-12z m-162 -193 c-51 -53 -95 -102 -97 -108 -6 -19 -43 -57 -56 -57 -15 0 -79
-79 -70 -88 3 -3 10 0 15 8 6 8 10 11 10 6 0 -16 -185 -206 -200 -206 -20 0
-18 19 5 40 14 13 25 29 25 35 0 6 16 27 36 46 20 18 51 57 70 84 64 95 335
356 352 340 2 -2 -38 -47 -90 -100z m-318 -254 c-5 -9 -25 -31 -45 -50 -25
-24 -35 -29 -35 -18 0 9 9 21 20 27 11 6 20 15 20 21 0 5 7 21 17 35 11 18 18
22 24 13 4 -7 4 -20 -1 -28z m-280 -391 c0 -5 -6 -10 -14 -10 -8 0 -18 5 -21
10 -3 6 3 10 14 10 12 0 21 -4 21 -10z m-43 -132 c-3 -8 -6 -5 -6 6 -1 11 2
17 5 13 3 -3 4 -12 1 -19z m0 -125 c-3 -10 -5 -4 -5 12 0 17 2 24 5 18 2 -7 2
-21 0 -30z m63 -70 c0 -5 -5 -15 -10 -23 -8 -12 -10 -11 -10 8 0 12 5 22 10
22 6 0 10 -3 10 -7z m36 -224 c-9 -42 -14 -54 -15 -34 -1 32 18 110 25 103 2
-3 -2 -34 -10 -69z m4119 27 c-18 -13 -18 -13 1 -24 17 -10 17 -11 -8 -12 -16
0 -28 4 -28 9 0 24 14 41 33 41 20 0 20 -1 2 -14z m-4059 -197 l-15 -54 0 57
c-1 37 3 58 12 61 18 6 19 -4 3 -64z m5457 -95 c-6 -17 -6 -17 -22 14 -12 22
-11 23 8 13 12 -7 18 -17 14 -27z"/>
<path d="M1810 8815 c-7 -8 -9 -15 -6 -15 4 0 14 7 22 15 9 8 11 15 6 15 -5 0
-15 -7 -22 -15z"/>
<path d="M7578 8823 c12 -2 32 -2 45 0 12 2 2 4 -23 4 -25 0 -35 -2 -22 -4z"/>
<path d="M1771 8774 c0 -11 3 -14 6 -6 3 7 2 16 -1 19 -3 4 -6 -2 -5 -13z"/>
<path d="M1881 8749 c-24 -23 -23 -33 3 -23 9 3 16 12 16 19 0 7 6 16 13 18 6
3 7 6 1 6 -5 1 -20 -8 -33 -20z"/>
<path d="M7486 8668 c-3 -18 -9 -73 -15 -123 -9 -82 -15 -119 -37 -210 -4 -16
-15 -44 -25 -61 -10 -18 -15 -42 -12 -57 4 -22 2 -27 -16 -27 -17 0 -21 6 -21
30 0 29 -1 30 -51 30 -51 0 -89 -13 -89 -30 0 -6 7 -10 15 -10 8 0 15 4 15 9
0 16 51 19 66 4 30 -31 11 -48 -35 -30 -27 10 -37 9 -63 -6 -20 -11 -35 -14
-41 -8 -5 5 -15 7 -23 4 -9 -3 -14 9 -16 44 -5 86 -23 46 -30 -69 -8 -120 -24
-797 -38 -1608 -20 -1165 -23 -1487 -14 -1493 5 -3 32 3 59 13 123 46 417 153
485 176 41 15 89 32 105 39 17 7 68 25 115 40 105 34 175 57 265 88 39 13 117
39 175 57 115 36 132 45 129 69 -2 9 3 41 9 71 6 30 13 71 14 90 2 40 -10 69
-21 51 -6 -9 -159 -60 -183 -61 -13 0 -9 27 6 39 8 7 18 27 21 44 11 54 26 85
44 90 11 2 21 18 25 37 6 32 7 32 20 14 13 -16 18 -17 45 -7 19 7 33 8 37 2 3
-6 10 -6 17 -1 12 9 32 16 96 32 l34 8 -5 -69 c-4 -49 -2 -69 6 -66 11 4 16
31 36 177 10 77 20 136 39 250 25 138 61 406 61 449 l0 34 -30 -38 c-17 -21
-35 -56 -42 -78 -7 -22 -27 -56 -45 -75 -21 -22 -33 -45 -33 -63 0 -39 -17
-79 -34 -79 -22 0 -25 19 -21 158 4 135 11 194 26 224 7 13 4 20 -10 28 -31
16 -34 13 -27 -36 4 -31 1 -54 -9 -74 -8 -16 -15 -40 -15 -54 0 -41 -19 -40
-37 1 l-16 38 -9 -32 c-14 -55 -75 -57 -63 -2 8 37 -15 40 -43 4 l-19 -24 -14
25 c-10 20 -11 29 -1 44 14 23 16 74 3 66 -5 -3 -12 -22 -15 -42 -5 -26 -12
-34 -24 -32 -27 5 -29 168 -3 245 34 102 65 80 55 -39 -4 -46 -3 -78 3 -78 12
0 33 59 33 96 1 16 9 54 20 84 11 30 19 63 20 74 0 16 -3 15 -21 -8 -11 -14
-24 -26 -28 -26 -16 0 -31 52 -31 105 0 63 -14 72 -27 18 -4 -20 -13 -38 -19
-40 -16 -5 -25 132 -13 187 6 25 13 57 16 73 3 17 12 27 23 27 28 0 43 25 25
40 -18 15 -20 67 -4 107 6 15 13 52 15 81 2 29 8 61 14 72 5 10 10 27 10 38 0
11 7 25 15 32 8 7 15 28 15 46 0 24 -5 34 -15 34 -10 0 -15 -11 -15 -35 0 -19
-3 -35 -7 -35 -15 0 -77 -163 -66 -174 3 -2 -5 -23 -18 -45 -18 -33 -20 -43
-10 -55 7 -8 10 -20 6 -26 -12 -20 -25 -10 -25 20 0 51 -18 33 -25 -25 -6 -47
-10 -54 -22 -43 -13 10 -14 4 -8 -47 4 -33 12 -61 16 -63 5 -2 9 -13 9 -25 0
-19 -1 -20 -13 -3 -12 17 -14 16 -25 -8 -6 -14 -9 -33 -6 -41 5 -11 2 -13 -10
-9 -18 7 -20 -10 -17 -161 4 -234 1 -255 -34 -255 -36 0 -70 -49 -84 -121 -27
-139 -57 -229 -77 -229 -14 0 -17 10 -15 47 1 11 -3 24 -8 28 -12 7 -12 7 -16
-43 -4 -43 -13 -52 -31 -27 -26 36 -9 273 23 322 10 16 13 34 9 58 -8 41 1 78
15 69 6 -3 8 -22 4 -45 -7 -42 -4 -45 26 -29 11 7 21 26 25 51 5 27 16 48 37
65 26 22 29 29 19 45 -17 26 -15 84 4 121 14 27 14 32 1 46 -14 13 -17 11 -30
-20 -27 -64 -37 -56 -37 31 0 44 -4 83 -10 86 -5 3 -10 -1 -10 -9 0 -8 -6 -30
-14 -48 -43 -98 -76 -197 -76 -224 0 -25 -33 -104 -69 -164 -5 -8 -24 -46 -42
-84 l-34 -70 -1 -170 c-1 -189 2 -216 21 -216 8 0 16 -9 20 -19 3 -11 12 -22
20 -25 12 -4 15 -24 14 -88 -2 -76 -2 -79 -9 -33 -8 57 -50 140 -71 140 -10 0
-15 -16 -17 -56 -3 -51 -1 -56 23 -67 20 -9 25 -19 25 -49 1 -21 7 -49 15 -63
17 -29 20 -80 5 -80 -5 0 -10 -6 -10 -14 0 -8 -10 -33 -22 -56 -17 -32 -24
-38 -27 -24 -2 10 2 20 8 22 6 2 11 16 11 32 0 15 7 30 15 34 11 4 12 11 6 28
-10 28 -24 27 -33 -4 -4 -13 -5 14 -2 60 4 45 4 82 0 82 -3 0 -14 -10 -26 -22
l-20 -22 0 22 c0 11 5 24 10 27 6 3 10 20 10 36 0 41 -23 33 -32 -12 -4 -19
-14 -68 -24 -108 -14 -63 -14 -84 -4 -130 6 -31 16 -64 21 -73 11 -22 11 -28
0 -28 -5 0 -25 24 -45 54 -19 29 -51 67 -71 84 -19 17 -35 38 -35 45 0 8 -7
20 -15 27 -8 7 -15 23 -15 35 0 12 51 99 114 193 63 94 117 184 121 200 3 16
1 41 -4 55 -12 30 -4 113 30 315 19 118 20 124 3 137 -17 12 -16 13 4 19 25 8
27 15 11 49 -8 18 -8 30 0 43 9 16 10 17 11 3 0 -9 9 -27 19 -40 l19 -24 12
42 c11 34 11 45 0 58 -9 11 -16 12 -25 5 -9 -7 -15 -7 -19 -1 -4 5 -2 12 4 16
16 10 11 44 -11 75 -18 23 -20 36 -15 73 9 59 -7 69 -45 29 -16 -17 -29 -33
-29 -36 0 -9 -59 -93 -75 -106 -8 -7 -15 -17 -15 -22 0 -17 -40 -62 -41 -47
-5 44 5 167 14 184 6 11 11 67 12 125 3 154 33 318 70 374 12 19 15 36 11 59
-27 126 -25 184 19 527 15 123 19 349 5 315 -14 -35 -32 -128 -37 -193 -5 -65
-25 -91 -60 -78 -13 5 -14 27 -8 156 4 83 5 150 2 150 -3 0 -8 -15 -11 -32z
m0 -355 c-11 -11 -17 4 -9 23 7 18 8 18 11 1 2 -10 1 -21 -2 -24z m65 -515
c-9 -32 -9 -31 -10 17 0 38 2 46 10 33 6 -11 6 -29 0 -50z m616 -430 c-3 -8
-6 -5 -6 6 -1 11 2 17 5 13 3 -3 4 -12 1 -19z m-810 -80 c-3 -8 -6 -5 -6 6 -1
11 2 17 5 13 3 -3 4 -12 1 -19z m532 -215 c-1 -57 -12 -93 -23 -75 -10 16 4
122 15 122 5 0 9 -21 8 -47z m173 -451 c-6 -30 -13 -38 -34 -40 -24 -3 -28 1
-34 34 -8 44 8 95 39 127 l22 22 7 -53 c4 -29 4 -70 0 -90z m238 -35 c0 -32
-24 -127 -31 -127 -12 0 -11 87 1 95 6 3 10 15 10 26 0 10 5 19 10 19 6 0 10
-6 10 -13z m44 -294 c-3 -335 -1 -313 -23 -313 -20 0 -73 -68 -76 -98 -1 -9
-11 -39 -23 -65 -12 -27 -22 -52 -22 -56 0 -4 -9 -26 -21 -50 -15 -33 -30 -47
-65 -62 -25 -10 -56 -19 -68 -19 -13 0 -48 -9 -79 -19 -87 -30 -231 -63 -261
-59 l-27 3 20 22 c19 21 13 42 -8 28 -13 -8 -24 13 -17 32 5 12 9 14 18 5 19
-19 42 -14 70 16 44 46 86 134 98 202 17 102 29 127 70 160 21 17 42 41 46 53
3 12 18 37 32 56 24 32 60 173 79 309 3 23 9 45 13 47 4 3 42 -7 83 -22 l76
-28 3 -40 c3 -40 3 -40 17 -15 13 23 19 44 36 125 24 112 31 58 29 -212z
m-299 138 c3 -5 1 -12 -5 -16 -5 -3 -10 1 -10 9 0 18 6 21 15 7z m-20 -61 c3
-5 0 -10 -9 -10 -8 0 -21 -3 -30 -6 -11 -4 -16 -1 -16 10 0 18 45 23 55 6z
m567 -125 c-2 -14 -8 -25 -13 -25 -10 0 -12 43 -3 53 13 12 21 -3 16 -28z
m-58 -38 c-3 -15 -10 -24 -15 -21 -11 6 -12 48 -2 57 13 13 24 -10 17 -36z
m42 -73 c-4 -19 -11 -32 -17 -29 -13 9 -11 59 3 73 17 17 22 1 14 -44z m-762
-13 c3 -5 -1 -11 -9 -15 -15 -6 -29 7 -18 18 9 9 21 8 27 -3z m23 -183 c-12
-110 -55 -198 -91 -185 -13 5 -12 15 4 76 11 39 20 78 20 87 0 23 39 74 57 74
13 0 15 -9 10 -52z"/>
<path d="M1621 8587 c0 -9 -14 -31 -31 -49 -16 -17 -30 -37 -30 -45 0 -12 2
-12 13 -1 31 32 58 80 54 96 -4 16 -5 16 -6 -1z"/>
<path d="M1715 8540 c-8 -16 -15 -31 -15 -34 0 -12 29 7 34 22 3 9 9 23 12 30
12 26 -16 10 -31 -18z"/>
<path d="M8769 8504 c-10 -12 -10 -20 -1 -35 18 -28 16 -29 -33 -29 -37 0 -45
-3 -45 -19 0 -22 -26 -87 -37 -94 -5 -3 -16 12 -27 33 -14 28 -23 36 -37 33
-10 -3 -19 -11 -19 -17 0 -13 -53 -56 -70 -56 -6 0 -10 -31 -10 -81 0 -44 -5
-89 -11 -101 -13 -25 -3 -88 15 -88 10 0 12 17 8 74 -3 53 0 88 12 124 30 89
64 93 67 7 l1 -40 10 35 11 35 11 -27 c12 -35 24 -36 32 -3 8 33 32 32 45 -2
6 -16 17 -36 26 -45 23 -25 37 -109 36 -213 0 -115 -9 -149 -44 -183 -22 -20
-29 -36 -29 -64 0 -45 17 -91 30 -83 13 8 13 41 -2 64 -13 22 -4 51 16 51 10
0 17 -14 21 -37 9 -55 14 -65 25 -58 5 3 10 31 10 61 0 42 7 67 26 100 14 24
30 41 35 38 6 -3 16 0 24 6 13 10 15 57 15 271 l0 259 -24 16 c-15 9 -23 21
-19 30 6 16 -23 54 -42 54 -7 0 -18 -7 -26 -16z m77 -500 c-3 -9 -6 -27 -6
-40 0 -13 -4 -24 -10 -24 -11 0 -14 63 -3 73 12 13 25 7 19 -9z m-36 -71 c0
-5 -5 -15 -10 -23 -8 -12 -10 -11 -10 8 0 12 5 22 10 22 6 0 10 -3 10 -7z"/>
<path d="M1527 8442 c-19 -21 -22 -42 -7 -42 6 0 10 9 10 19 0 11 6 21 13 24
6 2 9 7 6 11 -3 3 -13 -2 -22 -12z"/>
<path d="M8417 8349 c-10 -13 -17 -34 -17 -46 0 -16 -8 -25 -24 -29 -21 -5
-23 -9 -14 -23 7 -11 8 -36 4 -66 -6 -34 -10 -44 -17 -34 -5 8 -9 24 -9 37 0
45 -20 10 -21 -36 0 -42 -1 -44 -11 -22 -9 24 -10 24 -18 5 -4 -11 -10 -42
-12 -70 -3 -27 -3 -42 -1 -32 2 9 11 17 20 17 9 0 24 10 34 21 13 15 26 20 44
17 24 -5 25 -3 25 43 0 26 4 58 9 71 5 13 17 44 26 71 9 26 23 47 31 47 8 0
14 5 14 10 0 6 -5 10 -11 10 -7 0 -17 7 -24 16 -11 15 -13 15 -28 -7z"/>
<path d="M8412 8041 c3 -37 24 -53 34 -26 4 10 -2 25 -15 38 l-22 22 3 -34z"/>
<path d="M8340 7985 c0 -9 9 -15 21 -15 18 0 19 2 9 15 -7 8 -16 15 -21 15 -5
0 -9 -7 -9 -15z"/>
<path d="M8280 7954 c-6 -14 -10 -29 -10 -34 0 -5 -9 -15 -20 -23 -26 -18 -37
-49 -45 -131 -6 -50 -5 -67 4 -62 6 4 11 19 11 33 0 43 22 93 40 90 11 -1 16
8 18 36 2 20 7 37 11 37 5 0 13 18 19 40 8 33 7 40 -4 40 -8 0 -19 -12 -24
-26z"/>
<path d="M8391 7954 c0 -11 3 -14 6 -6 3 7 2 16 -1 19 -3 4 -6 -2 -5 -13z"/>
<path d="M7602 7910 c0 -19 2 -27 5 -17 2 9 2 25 0 35 -3 9 -5 1 -5 -18z"/>
<path d="M8648 7883 c7 -3 16 -2 19 1 4 3 -2 6 -13 5 -11 0 -14 -3 -6 -6z"/>
<path d="M8852 7815 c0 -16 2 -22 5 -12 2 9 2 23 0 30 -3 6 -5 -1 -5 -18z"/>
<path d="M8797 7651 c-37 -38 -38 -41 -28 -79 18 -65 51 -79 51 -22 0 15 5 41
11 58 6 17 9 42 7 56 l-3 26 -38 -39z"/>
<path d="M7576 7461 c-4 -7 -5 -15 -2 -18 9 -9 19 4 14 18 -4 11 -6 11 -12 0z"/>
<path d="M7542 7400 c0 -19 2 -27 5 -17 2 9 2 25 0 35 -3 9 -5 1 -5 -18z"/>
<path d="M7707 7413 c-4 -3 -7 -17 -7 -30 0 -16 6 -23 19 -23 18 0 19 3 10 30
-12 33 -12 33 -22 23z"/>
<path d="M8100 7330 c0 -5 5 -10 10 -10 6 0 10 5 10 10 0 6 -4 10 -10 10 -5 0
-10 -4 -10 -10z"/>
<path d="M7740 7295 c-13 -35 -13 -45 4 -45 15 0 28 58 14 66 -4 3 -13 -7 -18
-21z"/>
<path d="M8747 7293 c-4 -3 -7 -19 -7 -33 0 -15 -7 -47 -15 -71 -11 -29 -12
-46 -5 -53 15 -15 12 -26 -6 -26 -11 0 -14 -6 -10 -20 3 -11 9 -29 12 -40 14
-51 33 -2 54 147 7 45 9 86 5 92 -7 12 -19 14 -28 4z"/>
<path d="M8557 7154 c-4 -4 -7 -14 -7 -23 0 -11 3 -12 11 -4 6 6 10 16 7 23
-2 6 -7 8 -11 4z"/>
<path d="M8601 7084 c0 -11 3 -14 6 -6 3 7 2 16 -1 19 -3 4 -6 -2 -5 -13z"/>
<path d="M8591 7041 c-11 -7 -11 -12 0 -30 11 -17 11 -25 1 -41 -6 -11 -12
-34 -12 -52 -1 -18 -7 -51 -15 -73 -8 -22 -15 -47 -15 -55 0 -12 2 -12 15 1 8
8 19 41 24 74 6 33 14 83 20 110 10 55 3 79 -18 66z"/>
<path d="M7975 6940 c-8 -13 14 -42 26 -34 5 3 9 14 9 25 0 20 -24 26 -35 9z"/>
<path d="M7957 6874 c-7 -8 4 -44 14 -44 12 0 12 37 0 44 -4 3 -11 3 -14 0z"/>
<path d="M7866 6784 c-18 -48 4 -78 30 -39 13 20 14 28 4 40 -16 19 -26 19
-34 -1z"/>
<path d="M8574 6659 c-3 -6 -1 -16 5 -22 8 -8 11 -5 11 11 0 24 -5 28 -16 11z"/>
<path d="M751 6624 c0 -11 3 -14 6 -6 3 7 2 16 -1 19 -3 4 -6 -2 -5 -13z"/>
<path d="M932 6305 c0 -16 2 -22 5 -12 2 9 2 23 0 30 -3 6 -5 -1 -5 -18z"/>
<path d="M749 6293 c-2 -16 -2 -102 2 -193 l5 -165 2 193 c2 181 -1 228 -9
165z"/>
<path d="M760 5857 c0 -36 6 -86 14 -109 8 -24 17 -54 19 -68 7 -36 0 72 -11
158 -12 94 -22 103 -22 19z"/>
<path d="M8477 5873 c-4 -3 -7 -11 -7 -17 0 -6 5 -5 12 2 6 6 9 14 7 17 -3 3
-9 2 -12 -2z"/>
<path d="M8455 5780 c-38 -17 -38 -19 -12 -19 15 -1 27 4 27 9 0 6 14 10 31
10 17 0 28 4 24 10 -8 14 -23 12 -70 -10z"/>
<path d="M812 5590 c0 -14 2 -19 5 -12 2 6 2 18 0 25 -3 6 -5 1 -5 -13z"/>
<path d="M5938 5593 c6 -2 18 -2 25 0 6 3 1 5 -13 5 -14 0 -19 -2 -12 -5z"/>
<path d="M830 5534 c0 -11 4 -24 9 -29 5 -6 11 -19 14 -30 3 -14 5 -11 6 10 0
17 -6 39 -14 49 -15 20 -15 20 -15 0z"/>
<path d="M5878 5533 c7 -3 16 -2 19 1 4 3 -2 6 -13 5 -11 0 -14 -3 -6 -6z"/>
<path d="M5467 5443 c-3 -4 -2 -26 2 -48 l7 -40 7 40 c6 36 -4 68 -16 48z"/>
<path d="M891 5375 c0 -11 6 -29 14 -39 20 -26 20 0 0 34 -13 22 -14 23 -14 5z"/>
<path d="M945 5260 c3 -5 10 -10 16 -10 5 0 9 5 9 10 0 6 -7 10 -16 10 -8 0
-12 -4 -9 -10z"/>
<path d="M976 5195 c4 -8 8 -15 10 -15 2 0 4 7 4 15 0 8 -4 15 -10 15 -5 0 -7
-7 -4 -15z"/>
<path d="M1040 5100 c0 -5 5 -10 11 -10 5 0 7 5 4 10 -3 6 -8 10 -11 10 -2 0
-4 -4 -4 -10z"/>
<path d="M1141 4984 c0 -11 3 -14 6 -6 3 7 2 16 -1 19 -3 4 -6 -2 -5 -13z"/>
<path d="M1390 4777 c27 -15 36 -14 25 2 -3 6 -16 11 -28 11 -21 0 -21 -1 3
-13z"/>
<path d="M1580 4676 c0 -2 7 -9 15 -16 9 -7 15 -8 15 -2 0 5 -7 12 -15 16 -8
3 -15 4 -15 2z"/>
<path d="M2328 4653 c-16 -2 -28 -9 -28 -14 0 -5 -11 -9 -24 -9 -14 0 -28 -4
-31 -10 -3 -5 2 -10 12 -10 28 0 97 27 101 39 2 6 2 10 0 10 -1 -1 -15 -4 -30
-6z"/>
<path d="M2095 4600 c-7 -12 -5 -12 60 -10 75 2 81 20 8 20 -34 0 -65 -4 -68
-10z"/>
<path d="M1788 4593 c12 -2 32 -2 45 0 12 2 2 4 -23 4 -25 0 -35 -2 -22 -4z"/>
<path d="M1907 4593 c-18 -17 -1 -23 66 -23 56 1 68 3 54 11 -11 6 -34 8 -54
4 -19 -3 -40 -2 -47 4 -7 6 -16 8 -19 4z"/>
<path d="M4161 4414 c0 -11 3 -14 6 -6 3 7 2 16 -1 19 -3 4 -6 -2 -5 -13z"/>
<path d="M4080 3454 c0 -8 5 -12 10 -9 6 4 8 11 5 16 -9 14 -15 11 -15 -7z"/>
<path d="M7195 3314 c-4 -22 -2 -41 4 -47 8 -8 11 3 11 36 0 56 -5 60 -15 11z"/>
<path d="M7187 3244 c-13 -21 -19 -91 -9 -98 7 -4 13 11 17 38 8 48 3 78 -8
60z"/>
<path d="M4070 2996 c0 -8 5 -18 10 -21 6 -3 10 1 10 9 0 8 -4 18 -10 21 -5 3
-10 -1 -10 -9z"/>
<path d="M3867 2066 c-3 -8 -2 -18 3 -21 13 -8 24 15 12 27 -6 6 -11 4 -15 -6z"/>
<path d="M3560 1775 c-7 -8 -8 -15 -2 -15 5 0 15 7 22 15 7 8 8 15 2 15 -5 0
-15 -7 -22 -15z"/>
<path d="M3449 1710 c-13 -10 -19 -19 -12 -20 11 0 43 26 43 36 0 8 -8 4 -31
-16z"/>
<path d="M3371 1481 c-8 -5 -11 -16 -7 -26 6 -15 9 -16 28 -3 12 8 24 20 26
26 4 14 -27 16 -47 3z"/>
<path d="M7567 1403 c-12 -11 -8 -23 8 -23 8 0 15 7 15 15 0 16 -12 20 -23 8z"/>
<path d="M3101 1384 c-1 -11 -10 -30 -21 -42 l-21 -22 36 0 c25 0 34 4 29 12
-4 6 -11 25 -15 42 -4 20 -7 24 -8 10z"/>
<path d="M2795 1030 c3 -5 13 -10 21 -10 8 0 14 5 14 10 0 6 -9 10 -21 10 -11
0 -17 -4 -14 -10z"/>
<path d="M8365 590 c3 -5 8 -10 11 -10 2 0 4 5 4 10 0 6 -5 10 -11 10 -5 0 -7
-4 -4 -10z"/>
<path d="M8326 468 c-7 -37 9 -62 25 -38 5 8 7 23 5 33 -2 9 3 21 12 27 14 8
12 9 -9 10 -22 0 -28 -6 -33 -32z"/>
</g>
</svg>
